HIERARCHY
ROOT hip
{
  OFFSET 0 0 0
  CHANNELS 6 Xposition Yposition Zposition Zrotation Yrotation Xrotation
  JOINT abdomen
  {
    OFFSET 0 20.6881 -0.73152
    CHANNELS 3 Zrotation Xrotation Yrotation
    JOINT chest
    {
      OFFSET 0 11.7043 -0.48768
      CHANNELS 3 Zrotation Xrotation Yrotation
      JOINT neck
      {
        OFFSET 0 22.1894 -2.19456
        CHANNELS 3 Zrotation Xrotation Yrotation
        JOINT head
        {
          OFFSET -0.24384 7.07133 1.2192
          CHANNELS 3 Zrotation Xrotation Yrotation
          JOINT leftEye
          {
            OFFSET 4.14528 8.04674 8.04672
            CHANNELS 3 Zrotation Xrotation Yrotation
            End Site
            {
              OFFSET 1 0 0
            }
          }
          JOINT rightEye
          {
            OFFSET -3.6576 8.04674 8.04672
            CHANNELS 3 Zrotation Xrotation Yrotation
            End Site
            {
              OFFSET 1 0 0
            }
          }
        }
      }
      JOINT rCollar
      {
        OFFSET -2.68224 19.2634 -4.8768
        CHANNELS 3 Zrotation Xrotation Yrotation
        JOINT rShldr
        {
          OFFSET -8.77824 -1.95073 1.46304
          CHANNELS 3 Zrotation Xrotation Yrotation
          JOINT rForeArm
          {
            OFFSET -28.1742 -1.7115 0.48768
            CHANNELS 3 Zrotation Xrotation Yrotation
            JOINT rHand
            {
              OFFSET -22.5879 0.773209 7.07136
              CHANNELS 3 Zrotation Xrotation Yrotation
              JOINT rThumb1
              {
                OFFSET -1.2192 -0.487915 3.41376
                CHANNELS 3 Zrotation Xrotation Yrotation
                JOINT rThumb2
                {
                  OFFSET -3.37035 -0.52449 3.41376
                  CHANNELS 3 Zrotation Xrotation Yrotation
                  End Site
                  {
                    OFFSET -1.78271 -1.18214 1.43049
                  }
                }
              }
              JOINT rIndex1
              {
                OFFSET -7.75947 0.938293 5.60832
                CHANNELS 3 Zrotation Xrotation Yrotation
                JOINT rIndex2
                {
                  OFFSET -2.54057 -0.884171 1.56538
                  CHANNELS 3 Zrotation Xrotation Yrotation
                  End Site
                  {
                    OFFSET -1.62519 -0.234802 1.16502
                  }
                }
              }
              JOINT rMid1
              {
                OFFSET -8.24714 1.18213 3.41376
                CHANNELS 3 Zrotation Xrotation Yrotation
                JOINT rMid2
                {
                  OFFSET -3.10165 -0.590103 1.0647
                  CHANNELS 3 Zrotation Xrotation Yrotation
                  End Site
                  {
                    OFFSET -2.48547 -0.328903 0.83742
                  }
                }
              }
              JOINT rRing1
              {
                OFFSET -8.82822 0.546677 1.51678
                CHANNELS 3 Zrotation Xrotation Yrotation
                JOINT rRing2
                {
                  OFFSET -2.60934 -0.819778 -0.0198488
                  CHANNELS 3 Zrotation Xrotation Yrotation
                  End Site
                  {
                    OFFSET -2.33842 -0.294052 0.168128
                  }
                }
              }
              JOINT rPinky1
              {
                OFFSET -8.27202 -0.0477905 -0.4584
                CHANNELS 3 Zrotation Xrotation Yrotation
                JOINT rPinky2
                {
                  OFFSET -1.82734 -0.647385 -0.700984
                  CHANNELS 3 Zrotation Xrotation Yrotation
                  End Site
                  {
                    OFFSET -1.69225 -0.51767 -0.607171
                  }
                }
              }
            }
          }
        }
      }
      JOINT lCollar
      {
        OFFSET 2.68224 19.2634 -4.8768
        CHANNELS 3 Zrotation Xrotation Yrotation
        JOINT lShldr
        {
          OFFSET 8.77824 -1.95073 1.46304
          CHANNELS 3 Zrotation Xrotation Yrotation
          JOINT lForeArm
          {
            OFFSET 28.1742 -1.7115 0.48768
            CHANNELS 3 Zrotation Xrotation Yrotation
            JOINT lHand
            {
              OFFSET 22.5879 0.773209 7.07136
              CHANNELS 3 Zrotation Xrotation Yrotation
              JOINT lThumb1
              {
                OFFSET 1.2192 -0.487915 3.41376
                CHANNELS 3 Zrotation Xrotation Yrotation
                JOINT lThumb2
                {
                  OFFSET 3.37035 -0.52449 3.41376
                  CHANNELS 3 Zrotation Xrotation Yrotation
                  End Site
                  {
                    OFFSET 1.78271 -1.18214 1.43049
                  }
                }
              }
              JOINT lIndex1
              {
                OFFSET 7.75947 0.938293 5.60832
                CHANNELS 3 Zrotation Xrotation Yrotation
                JOINT lIndex2
                {
                  OFFSET 2.54057 -0.884171 1.56538
                  CHANNELS 3 Zrotation Xrotation Yrotation
                  End Site
                  {
                    OFFSET 1.62519 -0.234802 1.16502
                  }
                }
              }
              JOINT lMid1
              {
                OFFSET 8.24714 1.18213 3.41376
                CHANNELS 3 Zrotation Xrotation Yrotation
                JOINT lMid2
                {
                  OFFSET 3.10165 -0.590103 1.0647
                  CHANNELS 3 Zrotation Xrotation Yrotation
                  End Site
                  {
                    OFFSET 2.48547 -0.328903 0.83742
                  }
                }
              }
              JOINT lRing1
              {
                OFFSET 8.82822 0.546677 1.51678
                CHANNELS 3 Zrotation Xrotation Yrotation
                JOINT lRing2
                {
                  OFFSET 2.60934 -0.819778 -0.0198488
                  CHANNELS 3 Zrotation Xrotation Yrotation
                  End Site
                  {
                    OFFSET 2.33842 -0.294052 0.168128
                  }
                }
              }
              JOINT lPinky1
              {
                OFFSET 8.27202 -0.0477905 -0.4584
                CHANNELS 3 Zrotation Xrotation Yrotation
                JOINT lPinky2
                {
                  OFFSET 1.82734 -0.647385 -0.700984
                  CHANNELS 3 Zrotation Xrotation Yrotation
                  End Site
                  {
                    OFFSET 1.69225 -0.51767 -0.607171
                  }
                }
              }
            }
          }
        }
      }
    }
  }
  JOINT rButtock
  {
    OFFSET -8.77824 4.35084 1.2192
    CHANNELS 3 Zrotation Xrotation Yrotation
    JOINT rThigh
    {
      OFFSET 0 -1.70687 -2.19456
      CHANNELS 3 Zrotation Xrotation Yrotation
      JOINT rShin
      {
        OFFSET 0 -36.8199 0.73152
        CHANNELS 3 Zrotation Xrotation Yrotation
        JOINT rFoot
        {
          OFFSET 0.73152 -45.1104 -5.12064
          CHANNELS 3 Zrotation Xrotation Yrotation
          End Site
          {
            OFFSET -1.1221 -3.69964 12.103
          }
        }
      }
    }
  }
  JOINT lButtock
  {
    OFFSET 8.77824 4.35084 1.2192
    CHANNELS 3 Zrotation Xrotation Yrotation
    JOINT lThigh
    {
      OFFSET 0 -1.70687 -2.19456
      CHANNELS 3 Zrotation Xrotation Yrotation
      JOINT lShin
      {
        OFFSET 0 -36.8199 0.73152
        CHANNELS 3 Zrotation Xrotation Yrotation
        JOINT lFoot
        {
          OFFSET -0.73152 -45.1104 -5.12064
          CHANNELS 3 Zrotation Xrotation Yrotation
          End Site
          {
            OFFSET 1.1221 -3.69964 12.103
          }
        }
      }
    }
  }
}
MOTION
Frames:	4
Frame Time:	0.00833333
93.8369 84.5294 14.7823 0.0 0.0 0.0 -0.769336 -0.00386042 -0.0215831 -0.21207 -0.00504147 -0.0367434 -1.96604e-15 7.95139e-16 1.73937e-16 -5.9946e-15 9.54166e-15 4.9075e-16 -0.0 0.0 0.0 -0.0 0.0 0.0 -8.4622e-16 -5.43552e-18 1.98785e-16 -1.99109e-14 -1.2424e-16 2.18663e-15 -3.65317e-13 1.06549e-13 5.725e-14 -4.17293e-12 -1.21756e-13 2.67167e-13 -9.84795e-12 -3.44224e-14 7.18805e-13 -1.70184e-11 -6.04305e-14 1.2269e-12 -9.84342e-12 -3.22031e-14 7.06083e-13 7.73091 5.47488 0.417314 -9.84879e-12 -3.45885e-14 7.15625e-13 2.90554 0.965183 0.102902 -9.84224e-12 -3.4191e-14 7.12444e-13 10.2786 0.731801 0.0259123 -9.85217e-12 -3.26007e-14 7.18805e-13 2.22167 -0.733487 -0.20892 -1.0423e-15 -4.65902e-18 -9.93923e-17 -2.22405e-14 6.83322e-17 5.96354e-16 -3.6308e-13 -1.08338e-13 1.27222e-14 -4.1719e-12 1.02772e-13 3.27597e-13 -9.83686e-12 -1.74418e-14 7.12444e-13 -1.6977e-11 -3.18055e-14 1.23724e-12 -9.84183e-12 -1.59028e-14 7.28347e-13 -7.73091 5.47488 -0.417314 -9.83721e-12 -1.75924e-14 7.06083e-13 -2.90554 0.965183 -0.102902 -9.84453e-12 -1.67973e-14 7.12444e-13 -10.2786 0.731801 -0.0259123 -9.83288e-12 -1.63003e-14 7.02903e-13 -2.22167 -0.733487 0.20892 -2.03217e-16 0.0 -3.88251e-19 -0.0540501 -2.09675 -0.0177057 -0.00903914 -1.7549 -0.0760338 -0.528787 3.85119 0.139755 2.03217e-16 0.0 3.88251e-19 -1.11501 -4.98912 0.093864 0.00115242 3.48415 -0.0050622 0.537156 1.50464 -0.0922989
86.9421 83.3083 7.99319 122.644 -88.6037 -123.293 -1.6488 -1.32288 -0.259007 -0.253225 2.00293 -0.0999138 -0.413296 3.51431 -0.0903167 1.59975 -4.92792 0.0305991 -0.0 0.0 0.0 -0.0 0.0 0.0 -5.07647e-15 2.40303e-13 4.87721e-15 21.2587 11.9397 2.33147 -8.59489 -5.48196 11.2779 0.0385339 4.3567 0.605917 7.98521e-10 -4.46031e-10 -3.52073e-10 1.37554e-09 -7.70618e-10 -6.16017e-10 7.98525e-10 -4.4603e-10 -3.52084e-10 7.73091 5.47488 0.417314 7.98521e-10 -4.46032e-10 -3.52075e-10 2.90554 0.965183 0.102902 7.98527e-10 -4.46032e-10 -3.52079e-10 10.2786 0.731801 0.0259123 7.98518e-10 -4.4603e-10 -3.52074e-10 2.22167 -0.733487 -0.20892 -5.22883e-15 2.40302e-13 4.58137e-15 -20.5715 10.1913 -1.94663 9.11554 -5.98254 -11.6822 -0.0277438 3.69617 -0.515565 -6.81407e-10 -3.04543e-10 7.49152e-10 -1.16995e-09 -5.26013e-10 1.29994e-09 -6.8141e-10 -3.0454e-10 7.49163e-10 -7.73091 5.47488 -0.417314 -6.81406e-10 -3.0454e-10 7.49146e-10 -2.90554 0.965183 -0.102902 -6.81414e-10 -3.04541e-10 7.49151e-10 -10.2786 0.731801 -0.0259123 -6.81404e-10 -3.04542e-10 7.49141e-10 -2.22167 -0.733487 0.20892 -2.03217e-16 0.0 -3.88251e-19 -2.43159 -5.42972 0.755043 0.0258439 7.70443 0.100147 -1.01102 -1.01003 -5.19306 2.03217e-16 0.0 3.88251e-19 1.41002 -7.08708 0.990628 -0.017675 10.5293 -0.138248 1.08946 -4.20439 5.16795
86.9401 83.3106 8.01363 121.867 -88.4582 -122.52 -2.59408 -2.71778 -0.511999 -0.290285 4.12511 -0.167495 -0.841541 7.23302 -0.187265 3.29939 -10.1421 0.0638565 -0.0 0.0 0.0 -0.0 0.0 0.0 -9.75246e-15 5.04575e-13 1.00324e-14 42.5807 24.4949 5.15682 -15.365 -10.566 23.5154 -0.022059 8.9632 1.25856 1.67385e-09 -9.25932e-10 -7.29502e-10 2.88354e-09 -1.59975e-09 -1.27647e-09 1.67385e-09 -9.25931e-10 -7.29511e-10 7.73091 5.47488 0.417314 1.67385e-09 -9.25933e-10 -7.29504e-10 2.90554 0.965183 0.102902 1.67386e-09 -9.25934e-10 -7.29509e-10 10.2786 0.731801 0.0259123 1.67385e-09 -9.25932e-10 -7.29505e-10 2.22167 -0.733487 -0.20892 -9.85952e-15 5.04573e-13 9.74045e-15 -41.5198 20.9225 -4.21959 16.131 -11.4716 -24.4169 0.0158428 7.60405 -1.06798 -1.40572e-09 -6.32539e-10 1.55559e-09 -2.41348e-09 -1.09253e-09 2.69929e-09 -1.40572e-09 -6.32536e-10 1.55559e-09 -7.73091 5.47488 -0.417314 -1.40572e-09 -6.32534e-10 1.55558e-09 -2.90554 0.965183 -0.102902 -1.40573e-09 -6.32536e-10 1.55559e-09 -10.2786 0.731801 -0.0259123 -1.40572e-09 -6.32538e-10 1.55558e-09 -2.22167 -0.733487 0.20892 -2.03217e-16 0.0 -3.88251e-19 -4.84902 -8.95151 1.58531 -0.00295984 17.7048 0.298662 -2.50313 -6.04766 -10.8908 2.03217e-16 0.0 3.88251e-19 4.14821 -9.30147 1.94779 -0.000236654 17.9754 -0.288329 2.82224 -10.0948 10.8708
86.942 83.3092 8.00626 122.603 -88.4883 -123.251 -3.4406 -3.96062 -0.735403 -0.322183 6.01884 -0.227325 -1.20616 10.5428 -0.275085 4.81549 -14.7837 0.0945892 -0.0 0.0 0.0 -0.0 0.0 0.0 -1.3537e-14 7.20919e-13 1.42341e-14 60.3039 35.5536 8.42138 -19.5738 -13.891 34.8351 -0.167038 13.0642 1.86067 2.41526e-09 -1.33802e-09 -1.05766e-09 4.16067e-09 -2.31173e-09 -1.8505e-09 2.41526e-09 -1.33802e-09 -1.05766e-09 7.73091 5.47488 0.417314 2.41526e-09 -1.33803e-09 -1.05766e-09 2.90554 0.965183 0.102902 2.41526e-09 -1.33803e-09 -1.05766e-09 10.2786 0.731801 0.0259123 2.41526e-09 -1.33803e-09 -1.05766e-09 2.22167 -0.733487 -0.20892 -1.36019e-14 7.20915e-13 1.39429e-14 -59.3598 30.4209 -6.66923 20.3328 -14.9515 -36.2634 0.119527 11.0849 -1.57283 -2.02455e-09 -9.13593e-10 2.24603e-09 -3.47588e-09 -1.57798e-09 3.89734e-09 -2.02455e-09 -9.13589e-10 2.24603e-09 -7.73091 5.47488 -0.417314 -2.02454e-09 -9.13586e-10 2.24603e-09 -2.90554 0.965183 -0.102902 -2.02455e-09 -9.13589e-10 2.24603e-09 -10.2786 0.731801 -0.0259123 -2.02455e-09 -9.13592e-10 2.24602e-09 -2.22167 -0.733487 0.20892 -2.03217e-16 0.0 -3.88251e-19 -6.91156 -12.0873 2.34231 -0.0941985 26.6222 0.503062 -4.68681 -10.3316 -16.124 2.03217e-16 0.0 3.88251e-19 6.6607 -11.2729 2.81654 0.0517197 24.619 -0.437419 5.38687 -15.0789 16.2196
